<svg width="71" height="62" viewBox="0 0 71 62" fill="none" xmlns="http://www.w3.org/2000/svg">
<g clip-path="url(#clip0_2_5)">
<path d="M55.6322 45.8976V47.3189C55.632 49.2418 55.2511 51.1459 54.5113 52.9224C53.7715 54.6989 52.6872 56.3129 51.3205 57.6725C49.9538 59.0321 48.3313 60.1104 46.5457 60.8461C44.7601 61.5817 42.8464 61.9603 40.9137 61.96H13.3368C12.5719 61.9464 11.843 61.6345 11.3069 61.0915C10.7709 60.5485 10.4705 59.8178 10.4705 59.0566C10.4705 58.2955 10.7709 57.5647 11.3069 57.0217C11.843 56.4787 12.5719 56.1668 13.3368 56.1532H40.9605C41.7762 56.155 42.5881 56.043 43.3726 55.8204C45.2243 55.3005 46.8544 54.1927 48.0148 52.6656C49.1751 51.1386 49.802 49.276 49.7999 47.3617V45.8976H55.6322Z" fill="white"/>
<path d="M36.934 45.8977H36.8686V45.8893C36.8901 45.8942 36.912 45.897 36.934 45.8977Z" fill="white"/>
<path d="M38.2288 5.78358C37.7701 5.78286 37.3131 5.83939 36.8686 5.95182V5.78358H38.2288Z" fill="white"/>
<path d="M36.8686 45.8893V45.8977H36.934C36.912 45.897 36.8901 45.8942 36.8686 45.8893Z" fill="white"/>
<path d="M55.6322 30.7025V40.0909H49.7962V30.4962C49.7965 29.9922 49.7515 29.4892 49.6617 28.9931C49.3916 27.4645 48.713 26.0365 47.6969 24.8589C46.6809 23.6813 45.365 22.7976 43.8873 22.3005C43.5015 22.1689 43.1061 22.0666 42.7046 21.9947C42.5664 21.964 42.4244 21.9445 42.2861 21.9259C41.8952 21.8716 41.5009 21.8446 41.1062 21.845H7.6325C7.3332 21.8442 7.04047 21.9323 6.79171 22.0978C6.57776 22.2365 6.40214 22.4263 6.28089 22.6499C6.15964 22.8735 6.09662 23.1237 6.09759 23.3778V59.0552C6.10452 59.4409 6.03417 59.824 5.89064 60.1823C5.74712 60.5406 5.53328 60.8669 5.26163 61.1421C4.98998 61.4172 4.66596 61.6358 4.30848 61.785C3.95101 61.9342 3.56724 62.0111 3.17958 62.0111C2.79193 62.0111 2.40816 61.9342 2.05068 61.785C1.6932 61.6358 1.36918 61.4172 1.09753 61.1421C0.825882 60.8669 0.612049 60.5406 0.46852 60.1823C0.32499 59.824 0.25464 59.4409 0.261576 59.0552V21.8487C0.262071 20.3089 0.877123 18.8323 1.97151 17.7436C3.06589 16.6548 4.55002 16.0431 6.09759 16.0428H40.7297C40.8642 16.0428 40.9988 16.0428 41.1296 16.0428C41.6552 16.0573 42.1797 16.0992 42.7009 16.1683C44.4262 16.3933 46.0976 16.9214 47.6373 17.7281C49.7299 18.8194 51.5337 20.3874 52.9015 22.3042C54.652 24.761 55.6063 27.6912 55.6369 30.7025H55.6322Z" fill="white"/>
<path d="M70.9654 11.3255V34.6243C70.965 37.4127 69.9327 40.1033 68.0655 42.1827C66.1983 44.262 63.627 45.5845 60.8423 45.8977H36.9265C36.9045 45.897 36.8826 45.8942 36.8611 45.8893C34.0918 45.5595 31.5402 44.2307 29.6894 42.1547C27.8386 40.0786 26.8171 37.3994 26.8184 34.6243V25.5325C26.8184 24.7625 27.1257 24.024 27.6728 23.4795C28.2199 22.9349 28.962 22.6289 29.7359 22.6286C30.5099 22.6286 31.2523 22.9346 31.7996 23.4791C32.3469 24.0237 32.6544 24.7623 32.6544 25.5325V34.6243C32.6544 34.6893 32.6544 34.7507 32.6544 34.8157C32.6544 34.9412 32.6656 35.0677 32.6777 35.1876C32.7471 35.9989 33.002 36.7837 33.423 37.482C33.844 38.1802 34.4199 38.7734 35.1067 39.2162C35.2412 39.3045 35.3795 39.3881 35.5215 39.4644C36.3014 39.8718 37.1686 40.0857 38.0494 40.0881H60.4574C61.7612 39.8764 62.9469 39.2103 63.8026 38.2089C64.6582 37.2074 65.1282 35.9359 65.1285 34.6215V11.3255C65.1288 10.5979 64.9851 9.8774 64.7056 9.2051C64.4261 8.5328 64.0161 7.92189 63.4993 7.40725C62.9824 6.89262 62.3687 6.48434 61.6932 6.20575C61.0177 5.92715 60.2937 5.7837 59.5624 5.78357H36.8686V5.95182C35.6666 6.253 34.6002 6.94503 33.8385 7.91806C33.0769 8.89109 32.6638 10.0894 32.6647 11.3227V12.4679C32.6644 13.2379 32.3568 13.9762 31.8095 14.5206C31.2622 15.065 30.52 15.3708 29.7462 15.3708C28.9724 15.3708 28.2303 15.065 27.6832 14.5205C27.136 13.9761 26.8286 13.2378 26.8286 12.4679V11.3255C26.8292 8.55082 27.8508 5.87243 29.7006 3.7961C31.5504 1.71976 34.1002 0.389233 36.8686 0.0557767C37.061 0.0334679 37.2526 0.0139477 37.4487 0.00279326H38.9659C38.9667 0.00197784 38.9676 0.00132888 38.9687 0.00088557C38.9697 0.000442256 38.9708 0.000213623 38.972 0.000213623C38.9731 0.000213623 38.9742 0.000442256 38.9753 0.00088557C38.9763 0.00132888 38.9773 0.00197784 38.978 0.00279326L42.7046 0.0102294L58.3676 0.037186H58.3788H60.7685H60.7844C62.841 0.262916 64.798 1.0383 66.4476 2.28108C67.853 3.33764 68.9927 4.70454 69.7767 6.27405C70.5607 7.84355 70.9676 9.57279 70.9654 11.3255Z" fill="#B4B4B4"/>
</g>
<defs>
<clipPath id="clip0_2_5">
<rect width="71" height="62" fill="white"/>
</clipPath>
</defs>
</svg>
